# xmcd
#
# Track frame offsets:
#	150
#	24821
#	44858
#	64252
#	81276
#	96997
#	121905
#	139550
#
# Disc length: 2089 seconds
#
# Revision: 1
# Processed by: cddbd v1.5.2PL0 Copyright (c) Steve Scherf et al.
# Submitted via: audiograbber 1.83.01
#
DISCID=69082708
DTITLE=Mr.Pete - A Great Joe Cocker Show
DYEAR=2014
DGENRE=Pop
TTITLE0=Unchain My Heart
TTITLE1=Up Where We Belong
TTITLE2=You Can Leave Your Hat On
TTITLE3=Standing Knee Deep In A River
TTITLE4=Make It Rain (Tom Waitts)
TTITLE5=Für immer und dich (Rio Reiser)
TTITLE6=Keine ist wie Du (Gregor Meile)
TTITLE7=Give Beer A Chance
EXTD=
EXTT0=
EXTT1=
EXTT2=
EXTT3=
EXTT4=
EXTT5=
EXTT6=
EXTT7=
PLAYORDER=
